<?xml version="1.0" standalone="no"?>
<!DOCTYPE svg PUBLIC "-//W3C//DTD SVG 20010904//EN"
 "http://www.w3.org/TR/2001/REC-SVG-20010904/DTD/svg10.dtd">
<svg version="1.0" xmlns="http://www.w3.org/2000/svg"
 width="1000.000000pt" height="1000.000000pt" viewBox="0 0 1000.000000 1000.000000"
 preserveAspectRatio="xMidYMid meet">

<g transform="translate(0.000000,1000.000000) scale(0.100000,-0.100000)"
fill="#000000" stroke="none">
<path d="M0 5000 l0 -5000 5000 0 5000 0 0 5000 0 5000 -5000 0 -5000 0 0
-5000z m5396 4545 c684 -66 1330 -270 1889 -598 367 -215 667 -449 967 -753
228 -232 381 -421 561 -692 89 -133 94 -141 191 -317 279 -503 468 -1101 533
-1685 14 -128 18 -242 18 -505 -1 -370 -14 -544 -60 -795 -178 -957 -609
-1771 -1297 -2445 -461 -453 -898 -740 -1509 -990 -376 -155 -821 -262 -1237
-300 -227 -20 -691 -20 -912 0 -552 51 -1183 241 -1676 506 -761 408 -1385
1011 -1816 1754 -342 590 -545 1253 -599 1955 -14 192 -6 645 15 820 56 451
161 858 325 1253 505 1218 1541 2176 2788 2581 344 111 701 184 1063 215 167
14 585 12 756 -4z"/>
<path d="M5343 9357 c-24 -24 -43 -46 -43 -49 0 -3 14 -8 30 -10 20 -3 43 3
67 18 l37 22 35 -28 c35 -27 89 -43 91 -27 1 4 -13 30 -31 57 -26 40 -38 50
-59 50 -15 0 -40 2 -56 5 -24 5 -36 -1 -71 -38z"/>
<path d="M4778 9263 l-78 -4 0 -142 c0 -78 3 -186 7 -241 l6 -99 106 7 c170
11 242 58 272 179 22 91 -7 197 -70 250 -51 43 -113 55 -243 50z m152 -98 c42
-22 61 -66 62 -140 0 -103 -47 -155 -140 -155 -50 0 -52 5 -52 178 l0 132 50
0 c28 0 64 -7 80 -15z"/>
<path d="M5290 9256 c0 -3 -11 -109 -25 -237 -14 -128 -24 -233 -22 -234 3 -3
239 -25 261 -25 12 0 16 10 16 39 0 37 -2 39 -37 45 -21 3 -54 6 -73 6 -56 0
-63 9 -55 74 l7 56 82 -2 81 -3 3 36 3 36 -82 7 -81 8 6 51 c4 28 8 53 9 54 2
1 38 -2 82 -6 44 -5 84 -5 88 -1 5 4 7 23 5 41 l-3 34 -115 12 c-134 14 -150
15 -150 9z"/>
<path d="M4301 9209 c-24 -5 -46 -11 -48 -13 -4 -4 -67 -327 -89 -459 l-7 -38
44 7 c53 8 69 19 69 49 0 12 3 36 6 52 6 29 9 30 82 41 43 7 82 12 88 12 6 0
21 -23 35 -51 l23 -51 50 6 c27 3 51 7 53 10 4 4 -43 93 -184 349 -30 53 -59
97 -66 96 -7 -1 -32 -5 -56 -10z m108 -264 c-6 -5 -111 -27 -115 -23 -1 2 2
28 6 58 5 30 11 78 15 105 l7 50 46 -92 c25 -51 44 -95 41 -98z"/>
<path d="M5707 8983 c-30 -126 -52 -231 -49 -234 4 -4 23 -9 43 -13 l35 -6 38
157 c21 87 41 167 45 178 5 12 11 -37 15 -120 3 -77 9 -164 12 -192 6 -50 8
-53 43 -63 20 -5 39 -10 43 -10 3 0 50 70 103 155 54 86 99 154 101 152 3 -2
-14 -77 -37 -166 -25 -95 -38 -166 -33 -171 5 -5 25 -11 45 -15 l36 -7 57 227
c31 124 54 230 51 234 -8 14 -126 35 -133 24 -4 -6 -50 -79 -102 -162 l-95
-152 -6 50 c-4 28 -10 113 -14 190 l-7 139 -64 16 c-35 9 -65 16 -67 16 -2 0
-29 -102 -60 -227z"/>
<path d="M3829 9106 c-74 -26 -111 -57 -137 -114 -33 -74 -28 -156 18 -248 64
-130 188 -159 327 -78 41 24 41 24 30 61 -6 21 -11 39 -12 40 0 1 -27 -11 -59
-27 -79 -40 -119 -39 -161 3 -33 33 -65 114 -65 164 0 37 26 90 52 104 12 8
50 16 83 19 l60 5 3 43 3 42 -53 0 c-29 -1 -69 -7 -89 -14z"/>
<path d="M6450 8981 c-7 -20 -44 -117 -81 -215 -38 -99 -69 -183 -69 -187 0
-11 71 -41 85 -36 5 3 16 22 24 43 7 22 42 114 77 206 35 92 64 173 64 181 0
9 -19 21 -43 30 l-44 15 -13 -37z"/>
<path d="M3268 8898 c-36 -15 -48 -26 -48 -42 0 -61 33 -472 39 -478 3 -4 26
2 49 12 l44 20 -7 58 -7 59 79 36 78 36 42 -47 43 -46 45 22 c33 16 44 26 38
36 -17 28 -328 356 -338 355 -5 0 -31 -10 -57 -21z m110 -152 c34 -41 62 -76
62 -78 0 -9 -102 -50 -108 -44 -8 8 -29 196 -22 195 3 0 33 -33 68 -73z"/>
<path d="M6753 8829 c-74 -36 -139 -132 -157 -231 -20 -109 71 -213 211 -243
29 -6 34 -3 53 27 11 18 20 36 20 39 0 4 -19 10 -42 13 -105 16 -159 80 -137
163 26 93 90 163 152 163 36 0 63 -14 105 -53 l32 -31 31 30 31 31 -47 41
c-80 70 -175 90 -252 51z"/>
<path d="M7185 8586 c-42 -18 -112 -97 -141 -159 -55 -120 -12 -232 115 -297
119 -60 234 -12 310 130 57 106 45 199 -34 268 -78 69 -175 91 -250 58z m163
-96 c39 -24 65 -79 56 -118 -10 -43 -50 -107 -89 -141 -40 -35 -87 -41 -135
-16 -83 43 -80 139 6 235 58 64 104 75 162 40z"/>
<path d="M2577 8511 c-138 -70 -182 -180 -123 -306 68 -147 197 -206 316 -146
130 67 172 177 114 301 -65 141 -198 206 -307 151z m125 -88 c16 -10 47 -44
69 -77 31 -46 39 -68 39 -103 0 -39 -5 -50 -36 -79 -64 -61 -140 -42 -203 49
-61 90 -57 165 11 207 41 25 81 25 120 3z"/>
<path d="M4665 8515 c-781 -71 -1532 -419 -2113 -979 -203 -196 -383 -422
-571 -716 -65 -101 -225 -431 -281 -579 -106 -280 -181 -603 -211 -906 -15
-152 -15 -536 0 -680 60 -595 276 -1184 609 -1664 349 -503 788 -882 1353
-1167 58 -30 109 -54 113 -54 3 0 39 -15 78 -33 182 -83 574 -199 753 -222 28
-4 88 -13 135 -20 183 -29 464 -39 685 -25 532 32 995 160 1445 397 133 70
134 71 310 185 316 206 648 521 888 843 450 604 692 1339 692 2100 0 716 -202
1380 -601 1976 -141 211 -248 339 -443 534 -265 263 -530 456 -866 632 -330
172 -722 301 -1075 353 -282 41 -614 51 -900 25z m-2476 -1791 c64 -25 163
-65 221 -89 58 -23 155 -62 215 -85 61 -23 182 -71 270 -105 88 -35 232 -91
320 -126 88 -34 213 -84 277 -110 65 -27 120 -49 123 -49 6 0 456 -177 585
-230 52 -21 149 -60 215 -85 66 -26 226 -89 355 -140 129 -51 334 -132 455
-179 290 -114 395 -157 401 -167 4 -8 -73 -65 -326 -239 -178 -123 -181 -125
-430 -299 -118 -83 -318 -221 -445 -306 -229 -155 -230 -155 -235 -128 -3 16
-5 187 -4 380 2 231 -1 355 -8 359 -6 4 -109 7 -229 7 l-218 1 -38 -44 c-21
-25 -60 -70 -88 -101 -27 -30 -63 -71 -80 -90 -54 -62 -265 -302 -355 -404
-91 -104 -570 -651 -669 -765 -31 -35 -74 -85 -96 -110 -45 -50 -188 -216
-278 -322 -32 -37 -62 -68 -67 -68 -6 0 -10 657 -10 1770 0 1330 3 1770 12
1770 6 0 63 -21 127 -46z m5809 -1731 l-3 -1778 -352 -3 c-394 -3 -394 -3
-300 60 43 29 223 160 465 337 23 18 42 36 42 41 0 7 -502 10 -1395 10 -1141
0 -1395 2 -1395 13 0 7 69 59 153 116 83 56 251 170 372 252 383 260 624 423
680 459 30 19 198 132 372 250 175 118 375 253 445 300 70 47 127 88 128 93 0
11 -76 45 -380 167 -151 61 -283 115 -292 120 -10 6 -23 10 -28 10 -6 0 -35
11 -63 24 -29 14 -169 72 -312 130 -143 57 -305 123 -360 146 -95 39 -403 164
-784 319 -96 39 -179 75 -185 81 -7 7 370 10 1178 10 860 0 1193 3 1208 11 12
6 73 53 137 104 64 50 197 153 296 228 99 74 221 167 270 206 50 39 93 71 98
71 4 0 6 -800 5 -1777z"/>
<path d="M2145 8151 c-43 -20 -182 -140 -177 -154 1 -5 73 -85 159 -177 l156
-169 33 27 c18 15 33 31 33 36 1 5 -24 38 -55 73 -56 64 -57 65 -38 84 19 19
21 18 124 -11 l105 -30 38 39 39 38 -118 29 -118 29 3 52 c3 65 -19 107 -71
134 -46 23 -62 23 -113 0z m80 -101 c27 -30 22 -68 -14 -103 l-31 -31 -45 44
-46 45 35 33 c41 37 75 41 101 12z"/>
<path d="M7880 8078 c-30 -29 -106 -101 -168 -161 l-114 -110 31 -31 31 -30
42 39 c24 22 83 78 132 125 48 47 83 74 76 60 -7 -14 -48 -87 -92 -163 -43
-76 -78 -142 -78 -146 0 -9 54 -61 63 -61 4 0 85 36 179 80 l172 80 -135 -129
-134 -129 32 -33 32 -32 159 151 c88 84 165 159 172 168 12 13 7 22 -33 62
l-46 46 -167 -77 c-92 -42 -169 -75 -171 -73 -3 2 30 65 71 139 112 200 107
180 56 232 -24 25 -47 45 -50 45 -3 0 -30 -24 -60 -52z"/>
<path d="M1728 7743 l-117 -138 21 -22 c30 -32 40 -29 83 19 46 50 34 56 207
-94 67 -60 128 -108 133 -108 6 0 22 15 37 34 l28 35 -149 127 -149 128 41 48
41 49 -30 29 -29 30 -117 -137z"/>
<path d="M8251 7434 c-123 -35 -226 -66 -229 -69 -7 -6 46 -85 57 -85 5 0 28
7 51 15 23 8 46 15 51 15 11 0 99 -124 99 -140 0 -7 -13 -28 -30 -47 -16 -18
-30 -38 -30 -44 0 -9 49 -89 55 -89 1 0 69 92 149 205 l148 206 -32 49 c-18
28 -39 50 -49 49 -9 0 -117 -29 -240 -65z m207 -43 c-8 -22 -104 -140 -114
-141 -11 0 -64 72 -64 88 0 8 142 59 168 61 8 1 12 -3 10 -8z"/>
<path d="M1490 7438 c-8 -13 -19 -28 -23 -35 -7 -12 41 -47 253 -182 l35 -22
-170 6 c-93 3 -184 8 -202 11 -29 5 -35 1 -67 -43 -20 -26 -36 -52 -36 -58 0
-8 307 -215 376 -252 20 -12 24 -10 43 21 12 18 21 36 21 38 0 3 -65 47 -145
98 -80 51 -143 95 -141 97 2 3 78 0 168 -6 248 -17 232 -19 268 35 18 25 30
50 27 57 -4 11 -352 242 -380 253 -7 2 -19 -6 -27 -18z"/>
<path d="M8600 7054 c-80 -42 -156 -86 -168 -98 -75 -67 -68 -182 17 -278 73
-83 132 -78 334 27 l147 77 -22 39 c-12 21 -25 39 -30 39 -5 0 -71 -31 -148
-70 -89 -45 -152 -70 -173 -70 -45 0 -78 36 -84 92 -6 56 6 67 175 153 73 38
135 72 138 76 4 7 -32 89 -39 89 -1 0 -67 -35 -147 -76z"/>
<path d="M1125 6814 c-30 -65 -55 -120 -55 -124 0 -8 420 -214 425 -208 7 8
115 229 115 236 0 5 -16 16 -35 25 l-36 17 -36 -75 c-19 -41 -39 -75 -44 -75
-21 0 -99 45 -99 57 0 8 14 41 31 74 17 34 29 62 27 64 -2 1 -18 10 -35 19
l-33 16 -35 -70 c-19 -38 -40 -70 -45 -70 -21 0 -80 35 -80 47 0 8 14 40 30
73 17 33 30 64 30 69 0 9 -50 41 -64 41 -3 0 -30 -52 -61 -116z"/>
<path d="M997 6479 c-107 -144 -80 -292 66 -363 194 -95 330 -25 362 185 l7
45 -40 16 -40 16 -6 -51 c-15 -108 -52 -150 -131 -149 -58 2 -139 37 -171 75
-35 41 -30 107 11 161 l28 37 -30 31 -30 30 -26 -33z"/>
<path d="M8550 6477 c0 -2 7 -24 16 -50 l16 -47 62 0 62 0 26 -81 27 -82 -22
-17 c-76 -60 -71 -52 -55 -101 9 -24 21 -43 27 -41 7 1 97 71 200 154 l189
151 -21 59 -21 58 -253 0 c-139 0 -253 -1 -253 -3z m445 -86 c-6 -6 -44 -35
-85 -66 l-75 -56 -16 38 c-37 87 -41 82 58 86 48 1 97 4 108 5 12 1 15 -2 10
-7z"/>
<path d="M9105 6458 c8 -27 48 -64 105 -96 36 -21 40 -21 39 -5 0 10 -6 33
-13 52 -10 29 -21 38 -62 52 -68 24 -77 24 -69 -3z"/>
<path d="M9050 5309 c-45 -19 -60 -39 -60 -86 0 -60 32 -93 90 -93 72 0 109
31 110 92 0 68 -74 114 -140 87z"/>
<path d="M890 5238 c-52 -28 -66 -103 -26 -143 51 -51 154 -38 177 22 15 39 3
90 -26 109 -33 22 -95 27 -125 12z"/>
<path d="M4352 1212 c-42 -24 -78 -45 -81 -47 -4 -5 19 -65 26 -65 2 0 24 12
49 26 53 31 52 43 19 -163 -14 -86 -24 -158 -22 -159 2 -2 24 -7 48 -10 l44
-6 33 208 c18 115 32 219 32 230 0 17 -7 23 -36 26 -28 3 -51 -5 -112 -40z"/>
<path d="M5536 1246 c-22 -8 -53 -29 -70 -45 l-31 -31 27 -26 26 -27 33 26
c88 67 157 29 124 -67 -7 -19 -44 -79 -84 -134 -51 -72 -71 -108 -71 -130 0
-17 4 -33 8 -36 5 -3 64 4 133 15 187 29 179 27 179 57 0 51 -8 53 -104 36
-49 -8 -91 -13 -94 -9 -3 3 4 18 16 33 12 15 43 58 69 95 43 62 47 73 48 127
0 54 -3 63 -32 91 -26 27 -41 33 -85 36 -30 2 -70 -3 -92 -11z"/>
<path d="M4721 1202 c-53 -27 -74 -63 -79 -135 -3 -53 0 -67 20 -97 41 -61
135 -74 186 -27 26 24 28 12 6 -42 -22 -56 -55 -75 -131 -74 l-63 0 0 -38 0
-39 68 0 c121 1 184 48 217 164 22 74 16 180 -11 228 -23 39 -94 78 -144 78
-19 0 -50 -8 -69 -18z m104 -68 c19 -8 45 -55 45 -84 0 -31 -35 -60 -75 -60
-45 0 -70 34 -61 85 11 55 44 77 91 59z"/>
<path d="M5196 1210 c-47 -15 -94 -52 -118 -95 -30 -54 -38 -196 -14 -259 31
-81 104 -124 186 -109 78 13 120 68 120 156 0 60 -27 112 -70 135 -36 19 -106
9 -136 -19 -30 -28 -35 -23 -24 25 14 62 47 88 122 95 l63 6 0 35 0 35 -50 2
c-27 1 -63 -2 -79 -7z m72 -258 c33 -43 1 -132 -48 -132 -33 0 -70 44 -70 83
0 65 79 98 118 49z"/>
</g>
</svg>
